<svg width="66" height="66" viewBox="0 0 66 66" fill="none" xmlns="http://www.w3.org/2000/svg">
<rect x="0.5" y="0.5" width="65" height="65" rx="8.5" fill="#EAEAEA" stroke="#EAEAEA"/>
<path d="M50.7792 49.0793C49.9092 45.6993 50.4492 38.7293 50.9792 34.6493C51.9792 27.2993 54.0492 23.2293 54.0592 18.7593C54.0592 16.6793 53.4092 12.3693 48.8592 12.1893C37.6292 11.8093 33.4892 39.1193 32.9292 42.9793C32.6992 41.2093 32.8292 31.1293 31.9992 23.7793C30.8092 12.9193 28.4592 12.2993 26.1392 12.1193C17.7392 11.4993 17.1392 27.7093 17.2492 43.1693C17.2492 40.0093 17.6392 33.5693 14.6692 30.2693C13.1992 28.6393 10.9292 28.7993 12.4392 30.9693C12.6092 31.1993 12.7892 31.7093 13.0192 32.0493C15.9292 36.4393 15.3292 53.9793 18.2892 53.8393C19.2192 53.8393 20.6192 53.4193 20.4992 49.4793C20.1492 37.5993 21.0492 16.3293 25.0992 16.3093C29.3892 16.3093 28.4392 37.4393 29.6892 45.6693C30.3892 49.8393 34.6892 50.1893 36.0792 44.2593C37.8692 36.3393 37.9592 31.2593 41.8792 22.9793C47.0892 11.9793 51.3892 15.6093 49.5392 23.2493C48.5392 27.1693 45.4092 36.6193 46.9992 47.4793C47.4592 50.6393 49.4992 54.6393 50.9992 53.7793C51.8692 53.2893 51.4292 51.7793 50.7492 49.1293" fill="#CDCDCD"/>
</svg>
